Nederland
Horror / Komedie
88 minuten

geregisseerd door Dick Maas
met Huub Stapel, Bert Luppes en Egbert-Jan Weeber

St. Niklas (Huub Stapel) is een in ongenade gevallen bisschop. Hij trekt in de middeleeuwen samen met zijn roversbende plunderend en brandschattend over het platteland. Als dorpelingen het recht in eigen hand nemen en de bloeddorstige Sint en zijn trawanten vermoorden, zweert Niklas wraak. Iedere keer bij volle maan op 5 december herrijzen Niklas en zijn bende uit de dood om zich te wreken. Deze sinterklaasavond is het volle maan. Frank (Egbert-Jan Weeber) en zijn vrienden worden op gruwelijke wijze geconfronteerd met Niklas en zijn bende. Frank weet ternauwernood aan de moordpartij te ontkomen. De politie gelooft zijn verhaal echter niet en ziet hem als verdachte. Frank bindt hierop de strijd aan met Niklas, geholpen door zijn vriendin Lisa (Caro Lenssen) en Goert (Bert Luppes), een rechercheur van politie. Er volgt een bloedstollende nachtelijke strijd dwars door Amsterdam waarbij maar één ding zeker is: 5 december zal nooit meer hetzelfde zijn...

Media info:

General
Complete name                    : E:\torrent2\Sint.2010. blu-rayrip.mkv.720p.avc.dts-5.1.ACB-Team\Sint.2010. blu-rayrip.mkv.720p.avc.dts-5.1.ACB-Team.mkv
Format                           : Matroska
File size                        : 4.37 GiB
Duration                         : 1h 27mn
Overall bit rate                 : 7 128 Kbps
Encoded date                     : UTC 2011-10-09 15:57:44
Writing application              : mkvmerge v3.2.0 ('Beginnings') built on Feb 12 2010 16:46:17
Writing library                  : libebml v0.7.9 + libmatroska v0.8.1

Video
ID                               : 1
Format                           : AVC
Format/Info                      : Advanced Video Codec
Format profile                   : High@L4.1
Format settings, CABAC           : Yes
Format settings, ReFrames        : 5 frames
Muxing mode                      : Container profile=Unknown@4.1
Codec ID                         : V_MPEG4/ISO/AVC
Duration                         : 1h 27mn
Bit rate                         : 5 619 Kbps
Width                            : 1 280 pixels
Height                           : 544 pixels
Display aspect ratio             : 2.35:1
Frame rate                       : 24.000 fps
Color space                      : YUV
Chroma subsampling               : 4:2:0
Bit depth                        : 8 bits
Scan type                        : Progressive
Bits/(Pixel*Frame)               : 0.336
Stream size                      : 3.36 GiB (77%)
Writing library                  : x264 core 118 r2085 8a62835
Encoding settings                : cabac=1 / ref=5 / deblock=1:0:0 / analyse=0x3:0x133 / me=umh / subme=7 / psy=1 / psy_rd=1.00:0.00 / mixed_ref=1 / me_range=16 / chroma_me=1 / trellis=1 / 8x8dct=1 / cqm=0 / deadzone=21,11 / fast_pskip=1 / chroma_qp_offset=-2 / threads=6 / sliced_threads=0 / nr=0 / decimate=1 / interlaced=0 / bluray_compat=0 / constrained_intra=0 / bframes=3 / b_pyramid=2 / b_adapt=2 / b_bias=0 / direct=3 / weightb=1 / open_gop=0 / weightp=2 / keyint=250 / keyint_min=23 / scenecut=40 / intra_refresh=0 / rc=2pass / mbtree=0 / bitrate=5619 / ratetol=1.0 / qcomp=0.60 / qpmin=0 / qpmax=69 / qpstep=4 / cplxblur=20.0 / qblur=0.5 / ip_ratio=1.40 / pb_ratio=1.30 / aq=1:1.00
Language                         : Dutch

Audio
ID                               : 2
Format                           : DTS
Format/Info                      : Digital Theater Systems
Codec ID                         : A_DTS
Duration                         : 1h 27mn
Bit rate mode                    : Constant
Bit rate                         : 1 510 Kbps
Channel(s)                       : 6 channels
Channel positions                : Front: L C R, Side: L R, LFE
Sampling rate                    : 48.0 KHz
Bit depth                        : 24 bits
Stream size                      : 948 MiB (21%)
Language                         : Dutch

Menu
00:00:00.000                     : en:00:00:00.000
00:10:00.000                     : en:00:10:00.000
00:20:00.000                     : en:00:20:00.000
00:30:00.000                     : en:00:30:00.000
00:40:00.000                     : en:00:40:00.000
00:50:00.000                     : en:00:50:00.000
01:00:00.000                     : en:01:00:00.000
01:10:00.000                     : en:01:10:00.000
01:20:00.000                     : en:01:20:00.000

